<svg width="16" height="20" viewBox="0 0 16 20" fill="none" xmlns="http://www.w3.org/2000/svg">
<path d="M0 16.3076V14.8077H2V7.55768C2 6.19998 2.41987 4.99966 3.2596 3.95672C4.09935 2.91377 5.17948 2.24487 6.5 1.95V1.25C6.5 0.897433 6.62019 0.600958 6.86058 0.360575C7.10094 0.120191 7.39741 0 7.74997 0C8.10254 0 8.39901 0.120191 8.63937 0.360575C8.87976 0.600958 8.99995 0.897433 8.99995 1.25V1.95C10.3205 2.24487 11.4006 2.91377 12.2403 3.95672C13.0801 4.99966 13.5 6.19998 13.5 7.55768V14.8077H15.5V16.3076H0ZM7.74997 19.25C7.25767 19.25 6.83332 19.075 6.4769 18.725C6.1205 18.375 5.9423 17.9474 5.9423 17.4423H9.55765C9.55765 17.9474 9.38265 18.375 9.03265 18.725C8.68265 19.075 8.25509 19.25 7.74997 19.25ZM3.49995 14.8077H12V7.55768C12 6.38074 11.5859 5.37817 10.7577 4.54995C9.92947 3.72175 8.92691 3.30765 7.74997 3.30765C6.57304 3.30765 5.57047 3.72175 4.74227 4.54995C3.91406 5.37817 3.49995 6.38074 3.49995 7.55768V14.8077Z" fill="white"/>
</svg>
