<svg width="15" height="19" viewBox="0 0 15 19" fill="none" xmlns="http://www.w3.org/2000/svg">
<path d="M3.75 15.25H11.25V13.75H3.75V15.25ZM3.75 11.25H11.25V9.75H3.75V11.25ZM1.8077 19C1.30257 19 0.875 18.825 0.525 18.475C0.175 18.125 0 17.6974 0 17.1922V1.8077C0 1.30257 0.175 0.875 0.525 0.525C0.875 0.175 1.30257 0 1.8077 0H9.75L15 5.24995V17.1922C15 17.6974 14.825 18.125 14.475 18.475C14.125 18.825 13.6974 19 13.1922 19H1.8077ZM9 5.99995V1.49997H1.8077C1.73077 1.49997 1.66024 1.53203 1.59612 1.59613C1.53202 1.66024 1.49997 1.73077 1.49997 1.8077V17.1922C1.49997 17.2692 1.53202 17.3397 1.59612 17.4038C1.66024 17.4679 1.73077 17.5 1.8077 17.5H13.1922C13.2692 17.5 13.3397 17.4679 13.4038 17.4038C13.4679 17.3397 13.5 17.2692 13.5 17.1922V5.99995H9Z" fill="white"/>
</svg>
