<svg width="18" height="22" viewBox="0 0 18 22" fill="none" xmlns="http://www.w3.org/2000/svg">
<path d="M13.75 18.3941L17.3942 14.7499L16.35 13.7057L14.5 15.5558V11.025H13V15.5558L11.15 13.7057L10.1058 14.7499L13.75 18.3941ZM10 21.4999V20H17.5V21.4999H10ZM1.80768 17.5C1.31537 17.5 0.891016 17.3218 0.5346 16.9654C0.1782 16.6089 0 16.1846 0 15.6923V1.80768C0 1.31538 0.1782 0.891016 0.5346 0.534599C0.891016 0.178199 1.31537 0 1.80768 0H8.74998L14.5 5.74995V8.83265H13V6.49993H8V1.49993H1.80768C1.73074 1.49993 1.66022 1.53198 1.59612 1.5961C1.53201 1.6602 1.49995 1.73072 1.49995 1.80765V15.6923C1.49995 15.7692 1.53201 15.8397 1.59612 15.9038C1.66022 15.9679 1.73074 16 1.80768 16H7.80768V17.4999L1.80768 17.5Z" fill="#262626"/>
</svg>
