<svg width="19" height="19" viewBox="0 0 19 19" fill="none" xmlns="http://www.w3.org/2000/svg">
<path d="M9.48898 15.1153C9.77451 15.1153 10.0157 15.0168 10.2125 14.8196C10.4093 14.6224 10.5077 14.3811 10.5077 14.0956C10.5077 13.81 10.4091 13.5689 10.2119 13.3721C10.0148 13.1753 9.77343 13.0769 9.4879 13.0769C9.20237 13.0769 8.96121 13.1755 8.76443 13.3726C8.56763 13.5698 8.46922 13.8111 8.46922 14.0967C8.46922 14.3822 8.5678 14.6234 8.76495 14.8202C8.9621 15.0169 9.20344 15.1153 9.48898 15.1153ZM8.78075 11.5346H10.1884C10.2012 11.0423 10.2734 10.649 10.4048 10.3548C10.5362 10.0606 10.8551 9.6705 11.3615 9.1846C11.8012 8.74485 12.1381 8.33876 12.3721 7.96633C12.606 7.59389 12.723 7.15407 12.723 6.64685C12.723 5.78613 12.4137 5.11378 11.7952 4.6298C11.1766 4.14583 10.4449 3.90385 9.59998 3.90385C8.76538 3.90385 8.07468 4.12661 7.52788 4.57212C6.98109 5.01762 6.59103 5.54229 6.3577 6.14613L7.64228 6.6615C7.76408 6.32945 7.97241 6.00606 8.26727 5.69133C8.56216 5.37657 8.99998 5.2192 9.58075 5.2192C10.1718 5.2192 10.6086 5.38107 10.8913 5.7048C11.174 6.02852 11.3154 6.38461 11.3154 6.77308C11.3154 7.11281 11.2186 7.4237 11.025 7.70575C10.8314 7.9878 10.5846 8.26024 10.2846 8.52308C9.6282 9.11538 9.21346 9.58781 9.04038 9.94038C8.86729 10.2929 8.78075 10.8243 8.78075 11.5346ZM9.50165 19C8.18772 19 6.95268 18.7506 5.79655 18.252C4.6404 17.7533 3.63472 17.0765 2.7795 16.2217C1.92427 15.3669 1.24721 14.3616 0.748325 13.206C0.249442 12.0504 0 10.8156 0 9.50165C0 8.18772 0.249334 6.95268 0.748 5.79655C1.24667 4.6404 1.92342 3.63472 2.77825 2.7795C3.6331 1.92427 4.63834 1.24721 5.79398 0.748325C6.94959 0.249442 8.18437 0 9.4983 0C10.8122 0 12.0473 0.249333 13.2034 0.748C14.3596 1.24667 15.3652 1.92342 16.2205 2.77825C17.0757 3.6331 17.7527 4.63834 18.2516 5.79398C18.7505 6.94959 19 8.18437 19 9.4983C19 10.8122 18.7506 12.0473 18.252 13.2034C17.7533 14.3596 17.0765 15.3652 16.2217 16.2205C15.3669 17.0757 14.3616 17.7527 13.206 18.2516C12.0504 18.7505 10.8156 19 9.50165 19ZM9.49998 17.5C11.7333 17.5 13.625 16.725 15.175 15.175C16.725 13.625 17.5 11.7333 17.5 9.49998C17.5 7.26664 16.725 5.37498 15.175 3.82498C13.625 2.27498 11.7333 1.49997 9.49998 1.49997C7.26664 1.49997 5.37498 2.27498 3.82498 3.82498C2.27498 5.37498 1.49998 7.26664 1.49998 9.49998C1.49998 11.7333 2.27498 13.625 3.82498 15.175C5.37498 16.725 7.26664 17.5 9.49998 17.5Z" fill="#004364"/>
</svg>
