<svg width="20" height="21" viewBox="0 0 20 21" fill="none" xmlns="http://www.w3.org/2000/svg">
<path d="M1.49997 1.49997V7.67882V7.65382V17.5V1.49997ZM3.75 11.25H7.29808C7.42243 10.9628 7.56729 10.6958 7.73268 10.449C7.89806 10.2022 8.08395 9.96922 8.29035 9.75H3.75V11.25ZM3.75 15.25H6.78075C6.72307 15 6.68492 14.75 6.66632 14.5C6.64774 14.25 6.64871 14 6.66922 13.75H3.75V15.25ZM1.8077 19C1.30257 19 0.875 18.825 0.525 18.475C0.175 18.125 0 17.6974 0 17.1922V1.8077C0 1.30257 0.175 0.875 0.525 0.525C0.875 0.175 1.30257 0 1.8077 0H9.75L15 5.24995V8.0096C14.7602 7.91473 14.5153 7.84262 14.2654 7.79325C14.0154 7.7439 13.7602 7.70576 13.5 7.67882V5.99995H9V1.49997H1.8077C1.73077 1.49997 1.66024 1.53202 1.59612 1.59613C1.53202 1.66024 1.49997 1.73077 1.49997 1.8077V17.1922C1.49997 17.2692 1.53202 17.3397 1.59612 17.4038C1.66024 17.4679 1.73077 17.5 1.8077 17.5H7.70768C7.90383 17.7974 8.12369 18.0721 8.36727 18.324C8.61086 18.5759 8.87496 18.8012 9.15958 19H1.8077ZM13 16.6538C13.7449 16.6538 14.3734 16.3977 14.8856 15.8856C15.3977 15.3734 15.6538 14.7449 15.6538 14C15.6538 13.2551 15.3977 12.6266 14.8856 12.1144C14.3734 11.6022 13.7449 11.3461 13 11.3461C12.2551 11.3461 11.6266 11.6022 11.1144 12.1144C10.6022 12.6266 10.3461 13.2551 10.3461 14C10.3461 14.7449 10.6022 15.3734 11.1144 15.8856C11.6266 16.3977 12.2551 16.6538 13 16.6538ZM18.1 20.1442L15.3615 17.4057C15.0243 17.6519 14.6548 17.8381 14.2529 17.9644C13.8509 18.0907 13.4333 18.1538 13 18.1538C11.8461 18.1538 10.8654 17.75 10.0577 16.9423C9.24999 16.1346 8.84615 15.1538 8.84615 14C8.84615 12.8461 9.24999 11.8654 10.0577 11.0577C10.8654 10.25 11.8461 9.84615 13 9.84615C14.1538 9.84615 15.1346 10.25 15.9423 11.0577C16.75 11.8654 17.1538 12.8461 17.1538 14C17.1538 14.4333 17.0907 14.8509 16.9644 15.2529C16.8381 15.6548 16.6519 16.0243 16.4057 16.3615L19.1442 19.1L18.1 20.1442Z" fill="#00A6CA"/>
</svg>
