<svg width="19" height="18" viewBox="0 0 19 18" fill="none" xmlns="http://www.w3.org/2000/svg">
<path d="M1.49998 13.7691V15.673C1.49998 15.7499 1.53202 15.8204 1.59613 15.8845C1.66024 15.9486 1.73077 15.9807 1.8077 15.9807H17.1923C17.2692 15.9807 17.3397 15.9486 17.4038 15.8845C17.4679 15.8204 17.5 15.7499 17.5 15.673V13.7691H1.49998ZM1.8077 3.49997H4.57505C4.49172 3.34997 4.42953 3.19164 4.3885 3.02497C4.34747 2.85831 4.32695 2.68331 4.32695 2.49997C4.32695 1.80126 4.56893 1.20992 5.0529 0.72595C5.53687 0.241983 6.12821 0 6.82693 0C7.24614 0 7.63393 0.108925 7.99028 0.326775C8.34661 0.544625 8.65753 0.815183 8.92305 1.13845L9.48075 1.8846L10.0385 1.13845C10.2936 0.80255 10.6024 0.528833 10.9651 0.3173C11.3277 0.105767 11.7182 0 12.1366 0C12.834 0 13.4246 0.241983 13.9086 0.72595C14.3925 1.20992 14.6345 1.80126 14.6345 2.49997C14.6345 2.68331 14.6156 2.85831 14.5778 3.02497C14.54 3.19164 14.4762 3.34997 14.3865 3.49997H17.1923C17.6974 3.49997 18.125 3.67497 18.475 4.02497C18.825 4.37496 19 4.80252 19 5.30765V15.673C19 16.1781 18.825 16.6057 18.475 16.9557C18.125 17.3057 17.6974 17.4807 17.1923 17.4807H1.8077C1.30257 17.4807 0.875 17.3057 0.525 16.9557C0.175 16.6057 0 16.1781 0 15.673V5.30765C0 4.80252 0.175 4.37496 0.525 4.02497C0.875 3.67497 1.30257 3.49997 1.8077 3.49997ZM1.49998 11.1922H17.5V5.30765C17.5 5.23072 17.4679 5.1602 17.4038 5.0961C17.3397 5.03198 17.2692 4.99993 17.1923 4.99993H11.7269L13.7692 7.79222L12.573 8.65375L9.48075 4.45762L6.38845 8.65375L5.19233 7.79222L7.20388 4.99993H1.8077C1.73077 4.99993 1.66024 5.03198 1.59613 5.0961C1.53202 5.1602 1.49998 5.23072 1.49998 5.30765V11.1922ZM6.82693 3.49997C7.11026 3.49997 7.34776 3.40414 7.53943 3.21247C7.73109 3.02081 7.82693 2.78331 7.82693 2.49997C7.82693 2.21664 7.73109 1.97914 7.53943 1.78747C7.34776 1.59581 7.11026 1.49997 6.82693 1.49997C6.54359 1.49997 6.30609 1.59581 6.11443 1.78747C5.92276 1.97914 5.82693 2.21664 5.82693 2.49997C5.82693 2.78331 5.92276 3.02081 6.11443 3.21247C6.30609 3.40414 6.54359 3.49997 6.82693 3.49997ZM12.1346 3.49997C12.4179 3.49997 12.6554 3.40414 12.8471 3.21247C13.0387 3.02081 13.1346 2.78331 13.1346 2.49997C13.1346 2.21664 13.0387 1.97914 12.8471 1.78747C12.6554 1.59581 12.4179 1.49997 12.1346 1.49997C11.8512 1.49997 11.6137 1.59581 11.4221 1.78747C11.2304 1.97914 11.1346 2.21664 11.1346 2.49997C11.1346 2.78331 11.2304 3.02081 11.4221 3.21247C11.6137 3.40414 11.8512 3.49997 12.1346 3.49997Z" fill="white"/>
</svg>
