<svg width="19" height="15" viewBox="0 0 19 15" fill="none" xmlns="http://www.w3.org/2000/svg">
<path d="M8.10383 10.8461C8.45896 11.2012 8.91633 11.3698 9.47593 11.3519C10.0355 11.3339 10.4461 11.132 10.7077 10.7461L16.1346 2.88462L8.25383 8.2923C7.86153 8.55383 7.64967 8.95607 7.61825 9.49902C7.58685 10.042 7.74871 10.491 8.10383 10.8461ZM9.49998 0C10.4513 0 11.3426 0.124683 12.174 0.37405C13.0054 0.6234 13.8083 1.00064 14.5827 1.50577L13.1731 2.4173C12.6038 2.11473 12.0138 1.8862 11.4029 1.7317C10.792 1.57722 10.1577 1.49997 9.49998 1.49997C7.28331 1.49997 5.39581 2.27914 3.83748 3.83747C2.27914 5.39581 1.49998 7.28331 1.49998 9.49998C1.49998 10.2 1.59581 10.8916 1.78748 11.575C1.97914 12.2583 2.24998 12.9 2.59998 13.5H16.4C16.7833 12.8666 17.0625 12.2083 17.2375 11.525C17.4125 10.8416 17.5 10.1333 17.5 9.39997C17.5 8.79997 17.4259 8.1926 17.2779 7.57785C17.1298 6.9631 16.9013 6.37944 16.5923 5.82687L17.5038 4.4173C17.9974 5.22628 18.3676 6.03557 18.6144 6.84517C18.8612 7.65479 18.9897 8.49613 19 9.3692C19.0102 10.2743 18.9083 11.1298 18.6942 11.9355C18.4801 12.7413 18.1576 13.5295 17.7269 14.3C17.5948 14.5166 17.4089 14.6875 17.1692 14.8125C16.9295 14.9375 16.673 15 16.4 15H2.59998C2.33331 15 2.08171 14.9358 1.84518 14.8076C1.60864 14.6794 1.41794 14.4974 1.27307 14.2615C0.891025 13.5948 0.583333 12.8679 0.35 12.0808C0.116667 11.2936 0 10.4333 0 9.49998C0 8.19357 0.247825 6.96548 0.743475 5.8157C1.23913 4.66592 1.91573 3.65887 2.77328 2.79455C3.63083 1.93023 4.63909 1.2484 5.79808 0.74905C6.95704 0.249683 8.19101 0 9.49998 0Z" fill="white"/>
</svg>
